<svg width="38" height="38" viewBox="0 0 38 38" fill="none" xmlns="http://www.w3.org/2000/svg">
<path d="M19.0001 3.16666C15.8686 3.16666 12.8073 4.09527 10.2036 5.83505C7.59978 7.57484 5.57038 10.0477 4.372 12.9408C3.17361 15.834 2.86006 19.0176 3.47099 22.0889C4.08192 25.1603 5.5899 27.9815 7.80423 30.1958C10.0186 32.4102 12.8398 33.9182 15.9112 34.5291C18.9825 35.14 22.1661 34.8265 25.0592 33.6281C27.9524 32.4297 30.4252 30.4003 32.165 27.7965C33.9048 25.1927 34.8334 22.1315 34.8334 19C34.8334 16.9207 34.4239 14.8618 33.6282 12.9408C32.8325 11.0198 31.6662 9.27439 30.1959 7.80413C28.7257 6.33387 26.9802 5.1676 25.0592 4.3719C23.1383 3.5762 21.0794 3.16666 19.0001 3.16666V3.16666ZM23.2909 21.0425C23.4393 21.1897 23.5571 21.3648 23.6375 21.5577C23.7179 21.7507 23.7593 21.9576 23.7593 22.1667C23.7593 22.3757 23.7179 22.5826 23.6375 22.7756C23.5571 22.9685 23.4393 23.1436 23.2909 23.2908C23.1437 23.4392 22.9686 23.557 22.7757 23.6374C22.5827 23.7178 22.3758 23.7592 22.1668 23.7592C21.9577 23.7592 21.7508 23.7178 21.5578 23.6374C21.3649 23.557 21.1898 23.4392 21.0426 23.2908L19.0001 21.2325L16.9576 23.2908C16.8104 23.4392 16.6353 23.557 16.4423 23.6374C16.2494 23.7178 16.0424 23.7592 15.8334 23.7592C15.6244 23.7592 15.4175 23.7178 15.2245 23.6374C15.0316 23.557 14.8564 23.4392 14.7093 23.2908C14.5609 23.1436 14.4431 22.9685 14.3627 22.7756C14.2823 22.5826 14.2409 22.3757 14.2409 22.1667C14.2409 21.9576 14.2823 21.7507 14.3627 21.5577C14.4431 21.3648 14.5609 21.1897 14.7093 21.0425L16.7676 19L14.7093 16.9575C14.4111 16.6593 14.2436 16.255 14.2436 15.8333C14.2436 15.4117 14.4111 15.0073 14.7093 14.7092C15.0074 14.411 15.4118 14.2435 15.8334 14.2435C16.2551 14.2435 16.6594 14.411 16.9576 14.7092L19.0001 16.7675L21.0426 14.7092C21.3407 14.411 21.7451 14.2435 22.1668 14.2435C22.5884 14.2435 22.9928 14.411 23.2909 14.7092C23.5891 15.0073 23.7566 15.4117 23.7566 15.8333C23.7566 16.255 23.5891 16.6593 23.2909 16.9575L21.2326 19L23.2909 21.0425Z" fill="#FF9100"/>
</svg>
