<svg width="221" height="221" viewBox="0 0 221 221" fill="none" xmlns="http://www.w3.org/2000/svg">
<path d="M66.4688 215.75H35.7344C27.5831 215.75 19.7657 212.512 14.0019 206.748C8.23808 200.984 5 193.167 5 185.016V154.281" stroke="#BCBCBC" stroke-width="10" stroke-linecap="round" stroke-linejoin="round"/>
<path d="M154.281 215.75H185.016C193.167 215.75 200.984 212.512 206.748 206.748C212.512 200.984 215.75 193.167 215.75 185.016V154.281" stroke="#BCBCBC" stroke-width="10" stroke-linecap="round" stroke-linejoin="round"/>
<path d="M215.75 66.4688V35.7344C215.75 27.5831 212.512 19.7657 206.748 14.0019C200.984 8.23808 193.167 5 185.016 5H154.281" stroke="#BCBCBC" stroke-width="10" stroke-linecap="round" stroke-linejoin="round"/>
<path d="M5 66.4688V35.7344C5 27.5831 8.23808 19.7657 14.0019 14.0019C19.7657 8.23808 27.5831 5 35.7344 5H66.4688" stroke="#BCBCBC" stroke-width="10" stroke-linecap="round" stroke-linejoin="round"/>
<path d="M76.5645 113H74.9685L70.1665 105.734V113H68.5705V103.256H70.1665L74.9685 110.508V103.256H76.5645V113ZM83.0984 113.098C82.193 113.098 81.3577 112.888 80.5924 112.468C79.8364 112.039 79.2344 111.446 78.7864 110.69C78.3477 109.925 78.1284 109.066 78.1284 108.114C78.1284 107.162 78.3477 106.308 78.7864 105.552C79.2344 104.796 79.8364 104.208 80.5924 103.788C81.3577 103.359 82.193 103.144 83.0984 103.144C84.013 103.144 84.8484 103.359 85.6044 103.788C86.3697 104.208 86.9717 104.796 87.4104 105.552C87.849 106.308 88.0684 107.162 88.0684 108.114C88.0684 109.066 87.849 109.925 87.4104 110.69C86.9717 111.446 86.3697 112.039 85.6044 112.468C84.8484 112.888 84.013 113.098 83.0984 113.098ZM83.0984 111.712C83.7424 111.712 84.3164 111.567 84.8204 111.278C85.3244 110.979 85.7164 110.559 85.9964 110.018C86.2857 109.467 86.4304 108.833 86.4304 108.114C86.4304 107.395 86.2857 106.765 85.9964 106.224C85.7164 105.683 85.3244 105.267 84.8204 104.978C84.3164 104.689 83.7424 104.544 83.0984 104.544C82.4544 104.544 81.8804 104.689 81.3764 104.978C80.8724 105.267 80.4757 105.683 80.1864 106.224C79.9064 106.765 79.7664 107.395 79.7664 108.114C79.7664 108.833 79.9064 109.467 80.1864 110.018C80.4757 110.559 80.8724 110.979 81.3764 111.278C81.8804 111.567 82.4544 111.712 83.0984 111.712ZM100.08 106.168C100.08 106.663 99.9629 107.129 99.7296 107.568C99.4963 108.007 99.1229 108.366 98.6096 108.646C98.0963 108.917 97.4383 109.052 96.6356 109.052H94.8716V113H93.2756V103.27H96.6356C97.3823 103.27 98.0123 103.401 98.5256 103.662C99.0483 103.914 99.4356 104.259 99.6876 104.698C99.9489 105.137 100.08 105.627 100.08 106.168ZM96.6356 107.75C97.2423 107.75 97.6949 107.615 97.9936 107.344C98.2923 107.064 98.4416 106.672 98.4416 106.168C98.4416 105.104 97.8396 104.572 96.6356 104.572H94.8716V107.75H96.6356ZM106.656 113L104.416 109.108H103.198V113H101.602V103.27H104.962C105.708 103.27 106.338 103.401 106.852 103.662C107.374 103.923 107.762 104.273 108.014 104.712C108.275 105.151 108.406 105.641 108.406 106.182C108.406 106.817 108.219 107.395 107.846 107.918C107.482 108.431 106.917 108.781 106.152 108.968L108.56 113H106.656ZM103.198 107.834H104.962C105.559 107.834 106.007 107.685 106.306 107.386C106.614 107.087 106.768 106.686 106.768 106.182C106.768 105.678 106.618 105.286 106.32 105.006C106.021 104.717 105.568 104.572 104.962 104.572H103.198V107.834ZM112.043 104.558V107.414H115.403V108.716H112.043V111.698H115.823V113H110.447V103.256H115.823V104.558H112.043ZM126.175 103.27L122.521 113H120.673L117.005 103.27H118.713L121.597 111.362L124.495 103.27H126.175ZM129.106 103.27V113H127.51V103.27H129.106ZM132.797 104.558V107.414H136.157V108.716H132.797V111.698H136.577V113H131.201V103.256H136.577V104.558H132.797ZM151.213 103.27L148.329 113H146.523L144.479 105.636L142.309 113L140.517 113.014L137.759 103.27H139.453L141.469 111.194L143.653 103.27H145.445L147.475 111.152L149.505 103.27H151.213Z" fill="#BCBCBC"/>
</svg>
