<svg width="59" height="55" viewBox="0 0 59 55" fill="none" xmlns="http://www.w3.org/2000/svg">
<path d="M6.14998 16.05C5.01779 16.05 4.09998 16.9678 4.09998 18.1C4.09998 19.2322 5.01779 20.15 6.14998 20.15H8.64938L9.27578 22.6556C9.28236 22.6846 9.28955 22.7133 9.29733 22.7418L12.0797 33.8711L10.2499 35.7008C7.66703 38.2837 9.4963 42.7 13.149 42.7H30.7499C31.8821 42.7 32.7999 41.7822 32.7999 40.65C32.7999 39.5178 31.8821 38.6 30.7499 38.6L13.149 38.6L15.199 36.55H28.7C29.4765 36.55 30.1863 36.1113 30.5336 35.4168L36.6836 23.1168C37.0013 22.4813 36.9673 21.7266 36.5938 21.1222C36.2203 20.5179 35.5605 20.15 34.85 20.15H12.8756L12.2388 17.6028C12.0106 16.6902 11.1907 16.05 10.25 16.05H6.14998Z" fill="#909090"/>
<path d="M32.8 47.825C32.8 49.5233 31.4233 50.9 29.725 50.9C28.0267 50.9 26.65 49.5233 26.65 47.825C26.65 46.1267 28.0267 44.75 29.725 44.75C31.4233 44.75 32.8 46.1267 32.8 47.825Z" fill="#909090"/>
<path d="M13.325 50.9C15.0233 50.9 16.4 49.5233 16.4 47.825C16.4 46.1267 15.0233 44.75 13.325 44.75C11.6267 44.75 10.25 46.1267 10.25 47.825C10.25 49.5233 11.6267 50.9 13.325 50.9Z" fill="#909090"/>
<path fill-rule="evenodd" clip-rule="evenodd" d="M43.5 27.9C50.3483 27.9 55.9 22.3484 55.9 15.5C55.9 8.65171 50.3483 3.10004 43.5 3.10004C36.6516 3.10004 31.1 8.65171 31.1 15.5C31.1 22.3484 36.6516 27.9 43.5 27.9ZM38.85 7.75004C37.994 7.75004 37.3 8.44399 37.3 9.30004C37.3 10.1561 37.994 10.85 38.85 10.85H40.4C41.5475 10.85 42.5493 11.4734 43.0853 12.4H38.85C37.994 12.4 37.3 13.094 37.3 13.95C37.3 14.8061 37.994 15.5 38.85 15.5H43.0853C42.5493 16.4266 41.5475 17.05 40.4 17.05H38.85C38.2231 17.05 37.6579 17.4277 37.418 18.0069C37.1781 18.5861 37.3107 19.2528 37.754 19.6961L42.404 24.3461C43.0093 24.9514 43.9907 24.9514 44.596 24.3461C45.2013 23.7407 45.2013 22.7593 44.596 22.154L42.2966 19.8546C44.3094 19.2086 45.874 17.5618 46.4047 15.5H48.15C49.0061 15.5 49.7 14.8061 49.7 13.95C49.7 13.094 49.0061 12.4 48.15 12.4H46.4047C46.2632 11.8501 46.0481 11.3298 45.7706 10.85H48.15C49.0061 10.85 49.7 10.1561 49.7 9.30004C49.7 8.44399 49.0061 7.75004 48.15 7.75004H38.85Z" fill="#676869"/>
</svg>
