<svg width="42" height="42" viewBox="0 0 42 42" fill="none" xmlns="http://www.w3.org/2000/svg">
<path d="M6.3002 2.10001C5.1404 2.10001 4.2002 3.04021 4.2002 4.20001C4.2002 5.3598 5.1404 6.30001 6.3002 6.30001H8.86056L9.50224 8.86672C9.50898 8.89639 9.51634 8.92583 9.52432 8.95502L12.3745 20.3557L10.5001 22.2302C7.85425 24.876 9.72814 29.4 13.4699 29.4H31.5001C32.6599 29.4 33.6001 28.4598 33.6001 27.3C33.6001 26.1402 32.6599 25.2 31.5001 25.2L13.4699 25.2L15.5699 23.1H29.4002C30.1956 23.1 30.9228 22.6506 31.2785 21.9392L37.5785 9.33916C37.904 8.68818 37.8692 7.91509 37.4866 7.29597C37.1039 6.67686 36.428 6.30001 35.7002 6.30001H13.1898L12.5375 3.69068C12.3038 2.75583 11.4638 2.10001 10.5002 2.10001H6.3002Z" fill="#5E5C5A"/>
<path d="M33.6002 34.65C33.6002 36.3897 32.1899 37.8 30.4502 37.8C28.7105 37.8 27.3002 36.3897 27.3002 34.65C27.3002 32.9103 28.7105 31.5 30.4502 31.5C32.1899 31.5 33.6002 32.9103 33.6002 34.65Z" fill="#5E5C5A"/>
<path d="M13.6502 37.8C15.3899 37.8 16.8002 36.3897 16.8002 34.65C16.8002 32.9103 15.3899 31.5 13.6502 31.5C11.9105 31.5 10.5002 32.9103 10.5002 34.65C10.5002 36.3897 11.9105 37.8 13.6502 37.8Z" fill="#5E5C5A"/>
</svg>
