<svg width="42" height="42" viewBox="0 0 42 42" fill="none" xmlns="http://www.w3.org/2000/svg">
<path d="M6.2998 8.40005C6.2998 7.24025 7.24001 6.30005 8.3998 6.30005H33.5998C34.7596 6.30005 35.6998 7.24025 35.6998 8.40005V12.6C35.6998 13.7598 34.7596 14.7 33.5998 14.7H8.39981C7.24001 14.7 6.2998 13.7598 6.2998 12.6V8.40005Z" fill="#707070"/>
<path d="M6.2998 21C6.2998 19.8402 7.24001 18.9 8.3998 18.9H20.9998C22.1596 18.9 23.0998 19.8402 23.0998 21V33.6C23.0998 34.7598 22.1596 35.7 20.9998 35.7H8.3998C7.24001 35.7 6.2998 34.7598 6.2998 33.6V21Z" fill="#707070"/>
<path d="M29.3998 18.9C28.24 18.9 27.2998 19.8402 27.2998 21V33.6C27.2998 34.7598 28.24 35.7 29.3998 35.7H33.5998C34.7596 35.7 35.6998 34.7598 35.6998 33.6V21C35.6998 19.8402 34.7596 18.9 33.5998 18.9H29.3998Z" fill="#707070"/>
</svg>
