<svg width="45" height="40" viewBox="0 0 45 40" fill="none" xmlns="http://www.w3.org/2000/svg">
<path d="M44.4137 18.8919L39.0699 6.42319C38.9328 6.1027 38.7045 5.82956 38.4135 5.63766C38.1225 5.44576 37.7815 5.34356 37.4329 5.34375H32.0892V1.78125C32.0892 1.30883 31.9015 0.855766 31.5675 0.521716C31.2334 0.187667 30.7804 0 30.3079 0H1.80794V3.5625H28.5267V25.9279C27.715 26.3992 27.0047 27.0265 26.4367 27.7737C25.8687 28.5209 25.4542 29.3731 25.2171 30.2812H14.0238C13.5902 28.6021 12.5592 27.1388 11.1239 26.1655C9.68857 25.1922 7.94758 24.7758 6.22722 24.9943C4.50686 25.2128 2.92526 26.0512 1.77886 27.3525C0.632472 28.6537 0 30.3283 0 32.0625C0 33.7967 0.632472 35.4713 1.77886 36.7725C2.92526 38.0738 4.50686 38.9122 6.22722 39.1307C7.94758 39.3492 9.68857 38.9328 11.1239 37.9595C12.5592 36.9862 13.5902 35.5229 14.0238 33.8438H25.2171C25.6046 35.3725 26.4908 36.7284 27.7354 37.6969C28.9801 38.6654 30.5121 39.1913 32.0892 39.1913C33.6663 39.1913 35.1983 38.6654 36.443 37.6969C37.6876 36.7284 38.5738 35.3725 38.9612 33.8438H42.7767C43.2491 33.8438 43.7022 33.6561 44.0362 33.322C44.3703 32.988 44.5579 32.5349 44.5579 32.0625V19.5938C44.558 19.3524 44.5089 19.1136 44.4137 18.8919ZM7.15169 35.625C6.44709 35.625 5.75832 35.4161 5.17247 35.0246C4.58662 34.6332 4.13 34.0768 3.86037 33.4258C3.59073 32.7748 3.52018 32.0585 3.65764 31.3675C3.7951 30.6764 4.1344 30.0417 4.63262 29.5434C5.13085 29.0452 5.76562 28.7059 6.45668 28.5685C7.14774 28.431 7.86404 28.5015 8.515 28.7712C9.16596 29.0408 9.72235 29.4974 10.1138 30.0833C10.5053 30.6691 10.7142 31.3579 10.7142 32.0625C10.7132 33.007 10.3376 33.9126 9.66971 34.5805C9.00182 35.2484 8.09623 35.6241 7.15169 35.625ZM32.0892 8.90625H36.2573L40.0763 17.8125H32.0892V8.90625ZM32.0892 35.625C31.3846 35.625 30.6958 35.4161 30.11 35.0246C29.5241 34.6332 29.0675 34.0768 28.7979 33.4258C28.5282 32.7748 28.4577 32.0585 28.5951 31.3675C28.7326 30.6764 29.0719 30.0417 29.5701 29.5434C30.0683 29.0452 30.7031 28.7059 31.3942 28.5685C32.0852 28.431 32.8015 28.5015 33.4525 28.7712C34.1035 29.0408 34.6598 29.4974 35.0513 30.0833C35.4427 30.6691 35.6517 31.3579 35.6517 32.0625C35.6507 33.007 35.2751 33.9126 34.6072 34.5805C33.9393 35.2484 33.0337 35.6241 32.0892 35.625ZM40.9954 30.2812H38.9612C38.5689 28.7555 37.6813 27.4031 36.4376 26.436C35.194 25.4689 33.6646 24.9419 32.0892 24.9375V21.375H40.9954V30.2812Z" fill="#545454"/>
</svg>
