<svg width="55" height="54" viewBox="0 0 55 54" fill="none" xmlns="http://www.w3.org/2000/svg">
<path d="M6.14998 15.05C5.01779 15.05 4.09998 15.9678 4.09998 17.1C4.09998 18.2322 5.01779 19.15 6.14998 19.15H8.64938L9.27578 21.6556C9.28236 21.6846 9.28955 21.7133 9.29733 21.7418L12.0797 32.8711L10.2499 34.7008C7.66703 37.2837 9.4963 41.7 13.149 41.7H30.7499C31.8821 41.7 32.7999 40.7822 32.7999 39.65C32.7999 38.5178 31.8821 37.6 30.7499 37.6L13.149 37.6L15.199 35.55H28.7C29.4765 35.55 30.1863 35.1113 30.5336 34.4168L36.6836 22.1168C37.0013 21.4813 36.9673 20.7266 36.5938 20.1222C36.2203 19.5179 35.5605 19.15 34.85 19.15H12.8756L12.2388 16.6028C12.0106 15.6902 11.1907 15.05 10.25 15.05H6.14998Z" fill="#909090"/>
<path d="M32.8 46.825C32.8 48.5233 31.4233 49.9 29.725 49.9C28.0267 49.9 26.65 48.5233 26.65 46.825C26.65 45.1267 28.0267 43.75 29.725 43.75C31.4233 43.75 32.8 45.1267 32.8 46.825Z" fill="#909090"/>
<path d="M13.325 49.9C15.0233 49.9 16.4 48.5233 16.4 46.825C16.4 45.1267 15.0233 43.75 13.325 43.75C11.6267 43.75 10.25 45.1267 10.25 46.825C10.25 48.5233 11.6267 49.9 13.325 49.9Z" fill="#909090"/>
<path fill-rule="evenodd" clip-rule="evenodd" d="M29.5 6C29.5 5.17157 30.1716 4.5 31 4.5H35.5C36.3284 4.5 37 5.17157 37 6V10.5C37 11.3284 36.3284 12 35.5 12H31C30.1716 12 29.5 11.3284 29.5 10.5V6ZM32.5 9V7.5H34V9H32.5Z" fill="#676869"/>
<path fill-rule="evenodd" clip-rule="evenodd" d="M29.5 19.5C29.5 18.6716 30.1716 18 31 18H35.5C36.3284 18 37 18.6716 37 19.5V24C37 24.8284 36.3284 25.5 35.5 25.5H31C30.1716 25.5 29.5 24.8284 29.5 24V19.5ZM32.5 22.5V21H34V22.5H32.5Z" fill="#676869"/>
<path fill-rule="evenodd" clip-rule="evenodd" d="M44.5 4.5C43.6716 4.5 43 5.17157 43 6V10.5C43 11.3284 43.6716 12 44.5 12H49C49.8284 12 50.5 11.3284 50.5 10.5V6C50.5 5.17157 49.8284 4.5 49 4.5H44.5ZM46 7.5V9H47.5V7.5H46Z" fill="#676869"/>
<path d="M41.5 6C41.5 5.17157 40.8284 4.5 40 4.5C39.1716 4.5 38.5 5.17157 38.5 6V7.5C38.5 8.32843 39.1716 9 40 9C40.8284 9 41.5 8.32843 41.5 7.5V6Z" fill="#676869"/>
<path d="M40 10.5C40.8284 10.5 41.5 11.1716 41.5 12V13.5H44.5C45.3284 13.5 46 14.1716 46 15C46 15.8284 45.3284 16.5 44.5 16.5H40C39.1716 16.5 38.5 15.8284 38.5 15V12C38.5 11.1716 39.1716 10.5 40 10.5Z" fill="#676869"/>
<path d="M49 13.5C48.1716 13.5 47.5 14.1716 47.5 15C47.5 15.8284 48.1716 16.5 49 16.5C49.8284 16.5 50.5 15.8284 50.5 15C50.5 14.1716 49.8284 13.5 49 13.5Z" fill="#676869"/>
<path d="M38.5 19.5C38.5 18.6716 39.1716 18 40 18H41.5C42.3284 18 43 18.6716 43 19.5C43 20.3284 42.3284 21 41.5 21V24C41.5 24.8284 40.8284 25.5 40 25.5C39.1716 25.5 38.5 24.8284 38.5 24V19.5Z" fill="#676869"/>
<path d="M35.5 16.5C36.3284 16.5 37 15.8284 37 15C37 14.1716 36.3284 13.5 35.5 13.5H31C30.1716 13.5 29.5 14.1716 29.5 15C29.5 15.8284 30.1716 16.5 31 16.5H35.5Z" fill="#676869"/>
<path d="M50.5 19.5C50.5 20.3284 49.8284 21 49 21H46C45.1716 21 44.5 20.3284 44.5 19.5C44.5 18.6716 45.1716 18 46 18H49C49.8284 18 50.5 18.6716 50.5 19.5Z" fill="#676869"/>
<path d="M49 25.5C49.8284 25.5 50.5 24.8284 50.5 24C50.5 23.1716 49.8284 22.5 49 22.5H44.5C43.6716 22.5 43 23.1716 43 24C43 24.8284 43.6716 25.5 44.5 25.5H49Z" fill="#676869"/>
</svg>
