        <svg
          width="34"
          height="30"
          viewBox="0 0 34 30"
          fill="none"
          xmlns="http://www.w3.org/2000/svg"
        >
          <path
            d="M10.7 0.299988C9.54021 0.299988 8.60001 1.24019 8.60001 2.39999C8.60001 3.55979 9.54021 4.49999 10.7 4.49999H23.3C24.4598 4.49999 25.4 3.55979 25.4 2.39999C25.4 1.24019 24.4598 0.299988 23.3 0.299988H10.7Z"
            fill="#9F9C96"
          />
          <path
            d="M4.40001 8.69999C4.40001 7.54019 5.34021 6.59999 6.50001 6.59999H27.5C28.6598 6.59999 29.6 7.54019 29.6 8.69999C29.6 9.85979 28.6598 10.8 27.5 10.8H6.50001C5.34021 10.8 4.40001 9.85979 4.40001 8.69999Z"
            fill="#9F9C96"
          />
          <path
            d="M0.200012 17.1C0.200012 14.7804 2.08042 12.9 4.40001 12.9H29.6C31.9196 12.9 33.8 14.7804 33.8 17.1V25.5C33.8 27.8196 31.9196 29.7 29.6 29.7H4.40001C2.08042 29.7 0.200012 27.8196 0.200012 25.5V17.1Z"
            fill="#9F9C96"
          />
        </svg>