<svg width="22" height="22" viewBox="0 0 22 22" fill="none" xmlns="http://www.w3.org/2000/svg">
<path fill-rule="evenodd" clip-rule="evenodd" d="M0.5 2C0.5 1.17157 1.17157 0.5 2 0.5H6.5C7.32843 0.5 8 1.17157 8 2V6.5C8 7.32843 7.32843 8 6.5 8H2C1.17157 8 0.5 7.32843 0.5 6.5V2ZM3.5 5V3.5H5V5H3.5Z" fill="white"/>
<path fill-rule="evenodd" clip-rule="evenodd" d="M0.5 15.5C0.5 14.6716 1.17157 14 2 14H6.5C7.32843 14 8 14.6716 8 15.5V20C8 20.8284 7.32843 21.5 6.5 21.5H2C1.17157 21.5 0.5 20.8284 0.5 20V15.5ZM3.5 18.5V17H5V18.5H3.5Z" fill="white"/>
<path fill-rule="evenodd" clip-rule="evenodd" d="M15.5 0.5C14.6716 0.5 14 1.17157 14 2V6.5C14 7.32843 14.6716 8 15.5 8H20C20.8284 8 21.5 7.32843 21.5 6.5V2C21.5 1.17157 20.8284 0.5 20 0.5H15.5ZM17 3.5V5H18.5V3.5H17Z" fill="white"/>
<path d="M12.5 2C12.5 1.17157 11.8284 0.5 11 0.5C10.1716 0.5 9.5 1.17157 9.5 2V3.5C9.5 4.32843 10.1716 5 11 5C11.8284 5 12.5 4.32843 12.5 3.5V2Z" fill="white"/>
<path d="M11 6.5C11.8284 6.5 12.5 7.17157 12.5 8V9.5H15.5C16.3284 9.5 17 10.1716 17 11C17 11.8284 16.3284 12.5 15.5 12.5H11C10.1716 12.5 9.5 11.8284 9.5 11V8C9.5 7.17157 10.1716 6.5 11 6.5Z" fill="white"/>
<path d="M20 9.5C19.1716 9.5 18.5 10.1716 18.5 11C18.5 11.8284 19.1716 12.5 20 12.5C20.8284 12.5 21.5 11.8284 21.5 11C21.5 10.1716 20.8284 9.5 20 9.5Z" fill="white"/>
<path d="M9.5 15.5C9.5 14.6716 10.1716 14 11 14H12.5C13.3284 14 14 14.6716 14 15.5C14 16.3284 13.3284 17 12.5 17V20C12.5 20.8284 11.8284 21.5 11 21.5C10.1716 21.5 9.5 20.8284 9.5 20V15.5Z" fill="white"/>
<path d="M6.5 12.5C7.32843 12.5 8 11.8284 8 11C8 10.1716 7.32843 9.5 6.5 9.5H2C1.17157 9.5 0.5 10.1716 0.5 11C0.5 11.8284 1.17157 12.5 2 12.5H6.5Z" fill="white"/>
<path d="M21.5 15.5C21.5 16.3284 20.8284 17 20 17H17C16.1716 17 15.5 16.3284 15.5 15.5C15.5 14.6716 16.1716 14 17 14H20C20.8284 14 21.5 14.6716 21.5 15.5Z" fill="white"/>
<path d="M20 21.5C20.8284 21.5 21.5 20.8284 21.5 20C21.5 19.1716 20.8284 18.5 20 18.5H15.5C14.6716 18.5 14 19.1716 14 20C14 20.8284 14.6716 21.5 15.5 21.5H20Z" fill="white"/>
</svg>
