<svg width="56" height="58" viewBox="0 0 56 58" fill="none" xmlns="http://www.w3.org/2000/svg">
<ellipse cx="28" cy="28.5091" rx="28" ry="28.5091" fill="#FF9900"/>
<path d="M18.1462 19H25.8655V26.5H18.1462V19ZM38.731 19V26.5H31.0117V19H38.731ZM31.0117 32.75H33.5848V30.25H31.0117V27.75H33.5848V30.25H36.1579V27.75H38.731V30.25H36.1579V32.75H38.731V36.5H36.1579V39H33.5848V36.5H29.7251V39H27.152V34H31.0117V32.75ZM33.5848 32.75V36.5H36.1579V32.75H33.5848ZM18.1462 39V31.5H25.8655V39H18.1462ZM20.7193 21.5V24H23.2924V21.5H20.7193ZM33.5848 21.5V24H36.1579V21.5H33.5848ZM20.7193 34V36.5H23.2924V34H20.7193ZM18.1462 27.75H20.7193V30.25H18.1462V27.75ZM24.5789 27.75H29.7251V32.75H27.152V30.25H24.5789V27.75ZM27.152 21.5H29.7251V26.5H27.152V21.5ZM15.5731 16.5V21.5H13V16.5C13 15.837 13.2711 15.2011 13.7536 14.7322C14.2362 14.2634 14.8907 14 15.5731 14H20.7193V16.5H15.5731ZM41.3041 14C41.9865 14 42.641 14.2634 43.1236 14.7322C43.6061 15.2011 43.8772 15.837 43.8772 16.5V21.5H41.3041V16.5H36.1579V14H41.3041ZM15.5731 36.5V41.5H20.7193V44H15.5731C14.8907 44 14.2362 43.7366 13.7536 43.2678C13.2711 42.7989 13 42.163 13 41.5V36.5H15.5731ZM41.3041 41.5V36.5H43.8772V41.5C43.8772 42.163 43.6061 42.7989 43.1236 43.2678C42.641 43.7366 41.9865 44 41.3041 44H36.1579V41.5H41.3041Z" fill="white"/>
</svg>
