<svg width="45" height="45" viewBox="0 0 45 45" fill="none" xmlns="http://www.w3.org/2000/svg">
<path d="M42.8614 8.91182V1.78125C42.8614 0.795996 42.0654 0 41.0801 0H3.45121C2.46595 0 1.66996 0.795996 1.66996 1.78125V8.91182C0.740367 8.96748 3.44891e-05 9.74121 3.44891e-05 10.6875V18.0185C-0.00353027 19.3658 0.269278 20.6995 0.801597 21.9372C1.04095 22.505 1.33597 23.0394 1.66996 23.5459V42.75C1.66996 43.7297 2.46595 44.5312 3.45121 44.5312H41.0801C42.0654 44.5312 42.8614 43.7353 42.8614 42.75V23.5459C43.2006 23.0381 43.4913 22.4995 43.7297 21.9372C44.2585 20.6959 44.5313 19.3767 44.5313 18.0185V10.6875C44.5313 9.74121 43.791 8.96748 42.8614 8.91182ZM5.67777 4.00781H38.8535V8.90625H5.67777V4.00781ZM25.8282 40.529H18.7032V34.7344H25.8282V40.529ZM38.8758 40.529H29.3907V32.9531C29.3907 31.9679 28.5947 31.1719 27.6094 31.1719H16.9219C15.9367 31.1719 15.1407 31.9679 15.1407 32.9531V40.529H5.67777V27.0472C5.83919 27.1251 6.00619 27.203 6.17875 27.2698C7.42005 27.7931 8.73929 28.0547 10.0975 28.0547C11.4557 28.0547 12.7694 27.7931 14.0162 27.2698C14.7844 26.947 15.508 26.5351 16.1704 26.0396C16.1816 26.0341 16.1927 26.0341 16.2038 26.0396C16.8683 26.5372 17.5919 26.9504 18.358 27.2698C19.5993 27.7931 20.9186 28.0547 22.2768 28.0547C23.635 28.0547 24.9487 27.7931 26.1955 27.2698C26.9637 26.947 27.6873 26.5351 28.3497 26.0396C28.3609 26.0341 28.372 26.0341 28.3831 26.0396C29.0476 26.5372 29.7712 26.9504 30.5373 27.2698C31.7786 27.7931 33.0979 28.0547 34.4561 28.0547C35.8143 28.0547 37.128 27.7931 38.3748 27.2698C38.5418 27.1975 38.7088 27.1251 38.8758 27.0472V40.529ZM40.5235 18.0185C40.5235 21.3472 37.7959 24.0469 34.4394 24.0469C32.1683 24.0469 30.1867 22.8167 29.1402 20.9909C28.9787 20.7126 28.6893 20.54 28.3664 20.54H28.333C28.0158 20.54 27.7207 20.7126 27.5593 20.9909C27.0253 21.9223 26.2542 22.6956 25.3244 23.2324C24.3946 23.7691 23.3393 24.0502 22.2657 24.0469C20.0001 24.0469 18.0241 22.8223 16.9776 21.0021C16.8106 20.7182 16.51 20.54 16.1816 20.54C15.8532 20.54 15.547 20.7182 15.3856 21.0021C14.8484 21.9298 14.0763 22.6997 13.147 23.2343C12.2177 23.7688 11.164 24.0491 10.0919 24.0469C6.73539 24.0469 4.00785 21.3472 4.00785 18.0185V12.9419C4.00785 12.9252 4.01898 12.9141 4.03568 12.9141H40.4956C40.5123 12.9141 40.5235 12.9252 40.5235 12.9419V18.0185Z" fill="#545454"/>
</svg>
