<svg width="534" height="473" viewBox="0 0 534 473" fill="none" xmlns="http://www.w3.org/2000/svg">
<g opacity="0.94">
<path d="M10.3356 219.251L123.617 23.0417C129.869 12.2127 141.424 5.54172 153.928 5.54172L380.491 5.54172C392.995 5.54172 404.55 12.2127 410.802 23.0417L524.084 219.251C530.336 230.08 530.336 243.422 524.084 254.251L410.802 450.46C404.55 461.289 392.995 467.96 380.491 467.96L153.928 467.96C141.424 467.96 129.869 461.289 123.617 450.46L10.3356 254.251C4.08348 243.422 4.08348 230.08 10.3356 219.251Z" fill="url(#paint0_linear)"/>
<path d="M10.3356 219.251L123.617 23.0417C129.869 12.2127 141.424 5.54172 153.928 5.54172L380.491 5.54172C392.995 5.54172 404.55 12.2127 410.802 23.0417L524.084 219.251C530.336 230.08 530.336 243.422 524.084 254.251L410.802 450.46C404.55 461.289 392.995 467.96 380.491 467.96L153.928 467.96C141.424 467.96 129.869 461.289 123.617 450.46L10.3356 254.251C4.08348 243.422 4.08348 230.08 10.3356 219.251Z" fill="url(#paint1_linear)" fill-opacity="0.2"/>
<path d="M10.3356 219.251L123.617 23.0417C129.869 12.2127 141.424 5.54172 153.928 5.54172L380.491 5.54172C392.995 5.54172 404.55 12.2127 410.802 23.0417L524.084 219.251C530.336 230.08 530.336 243.422 524.084 254.251L410.802 450.46C404.55 461.289 392.995 467.96 380.491 467.96L153.928 467.96C141.424 467.96 129.869 461.289 123.617 450.46L10.3356 254.251C4.08348 243.422 4.08348 230.08 10.3356 219.251Z" stroke="white" stroke-width="10"/>
</g>
<defs>
<linearGradient id="paint0_linear" x1="539.961" y1="236.751" x2="-5.54151" y2="236.751" gradientUnits="userSpaceOnUse">
<stop stop-color="#FF9900"/>
<stop offset="1" stop-color="#FFC700"/>
</linearGradient>
<linearGradient id="paint1_linear" x1="14.4159" y1="236.751" x2="539.961" y2="236.751" gradientUnits="userSpaceOnUse">
<stop stop-opacity="0"/>
<stop offset="1" stop-color="#FF0000"/>
</linearGradient>
</defs>
</svg>
