<svg width="362" height="175" viewBox="0 0 362 175" fill="none" xmlns="http://www.w3.org/2000/svg">
<line x1="28" y1="159" x2="362" y2="159" stroke="#F8C461" stroke-width="2"/>
<rect x="206.5" y="103.5" width="23" height="54" fill="url(#paint0_linear)" stroke="#FF9900"/>
<line x1="28" y1="131" x2="362" y2="131" stroke="#F8C461" stroke-opacity="0.2" stroke-width="2"/>
<line x1="28" y1="94" x2="362" y2="94" stroke="#F8C461" stroke-opacity="0.2" stroke-width="2"/>
<line x1="28" y1="55" x2="362" y2="55" stroke="#F8C461" stroke-opacity="0.2" stroke-width="2"/>
<line x1="28" y1="18" x2="362" y2="18" stroke="#F8C461" stroke-opacity="0.2" stroke-width="2"/>
<rect x="34.5" y="88.5" width="24" height="69" fill="url(#paint1_linear)" stroke="#FF9900"/>
<rect x="59.5" y="54.5" width="23" height="103" fill="url(#paint2_linear)" stroke="#FF9900"/>
<rect x="83.5" y="84.5" width="24" height="73" fill="url(#paint3_linear)" stroke="#FF9900"/>
<rect x="108.5" y="27.5" width="23" height="130" fill="url(#paint4_linear)" stroke="#FF9900"/>
<rect x="132.5" y="47.5" width="24" height="110" fill="url(#paint5_linear)" stroke="#FF9900"/>
<rect x="157.5" y="17.5" width="23" height="140" fill="url(#paint6_linear)" stroke="#FF9900"/>
<rect x="181.5" y="72.5" width="24" height="85" fill="url(#paint7_linear)" stroke="#FF9900"/>
<rect x="230.5" y="119.5" width="24" height="38" fill="url(#paint8_linear)" stroke="#FF9900"/>
<rect x="255.5" y="88.5" width="23" height="69" fill="url(#paint9_linear)" stroke="#FF9900"/>
<rect x="279.5" y="106.5" width="24" height="51" fill="url(#paint10_linear)" stroke="#FF9900"/>
<rect x="304.5" y="120.5" width="23" height="37" fill="url(#paint11_linear)" stroke="#FF9900"/>
<rect x="328.5" y="99.5" width="24" height="58" fill="url(#paint12_linear)" stroke="#FF9900"/>
<path d="M330.133 170.45H327.093L326.533 172H325.573L328.093 165.07H329.143L331.653 172H330.693L330.133 170.45ZM329.873 169.71L328.613 166.19L327.353 169.71H329.873ZM337.611 166.52V172H336.701V171.19C336.528 171.47 336.285 171.69 335.971 171.85C335.665 172.003 335.325 172.08 334.951 172.08C334.525 172.08 334.141 171.993 333.801 171.82C333.461 171.64 333.191 171.373 332.991 171.02C332.798 170.667 332.701 170.237 332.701 169.73V166.52H333.601V169.61C333.601 170.15 333.738 170.567 334.011 170.86C334.285 171.147 334.658 171.29 335.131 171.29C335.618 171.29 336.001 171.14 336.281 170.84C336.561 170.54 336.701 170.103 336.701 169.53V166.52H337.611ZM341.408 166.43C341.881 166.43 342.295 166.533 342.648 166.74C343.008 166.947 343.275 167.207 343.448 167.52V166.52H344.368V172.12C344.368 172.62 344.261 173.063 344.048 173.45C343.835 173.843 343.528 174.15 343.128 174.37C342.735 174.59 342.275 174.7 341.748 174.7C341.028 174.7 340.428 174.53 339.948 174.19C339.468 173.85 339.185 173.387 339.098 172.8H339.998C340.098 173.133 340.305 173.4 340.618 173.6C340.931 173.807 341.308 173.91 341.748 173.91C342.248 173.91 342.655 173.753 342.968 173.44C343.288 173.127 343.448 172.687 343.448 172.12V170.97C343.268 171.29 343.001 171.557 342.648 171.77C342.295 171.983 341.881 172.09 341.408 172.09C340.921 172.09 340.478 171.97 340.078 171.73C339.685 171.49 339.375 171.153 339.148 170.72C338.921 170.287 338.808 169.793 338.808 169.24C338.808 168.68 338.921 168.19 339.148 167.77C339.375 167.343 339.685 167.013 340.078 166.78C340.478 166.547 340.921 166.43 341.408 166.43ZM343.448 169.25C343.448 168.837 343.365 168.477 343.198 168.17C343.031 167.863 342.805 167.63 342.518 167.47C342.238 167.303 341.928 167.22 341.588 167.22C341.248 167.22 340.938 167.3 340.658 167.46C340.378 167.62 340.155 167.853 339.988 168.16C339.821 168.467 339.738 168.827 339.738 169.24C339.738 169.66 339.821 170.027 339.988 170.34C340.155 170.647 340.378 170.883 340.658 171.05C340.938 171.21 341.248 171.29 341.588 171.29C341.928 171.29 342.238 171.21 342.518 171.05C342.805 170.883 343.031 170.647 343.198 170.34C343.365 170.027 343.448 169.663 343.448 169.25ZM348.312 171.27C349.158 170.59 349.822 170.033 350.302 169.6C350.782 169.16 351.185 168.703 351.512 168.23C351.845 167.75 352.012 167.28 352.012 166.82C352.012 166.387 351.905 166.047 351.692 165.8C351.485 165.547 351.148 165.42 350.682 165.42C350.228 165.42 349.875 165.563 349.622 165.85C349.375 166.13 349.242 166.507 349.222 166.98H348.342C348.368 166.233 348.595 165.657 349.022 165.25C349.448 164.843 349.998 164.64 350.672 164.64C351.358 164.64 351.902 164.83 352.302 165.21C352.708 165.59 352.912 166.113 352.912 166.78C352.912 167.333 352.745 167.873 352.412 168.4C352.085 168.92 351.712 169.38 351.292 169.78C350.872 170.173 350.335 170.633 349.682 171.16H353.122V171.92H348.312V171.27ZM353.934 165.6V164.77H355.814V172H354.894V165.6H353.934Z" fill="#FFC700"/>
<path d="M34.0951 170.45H31.0551L30.4951 172H29.5351L32.0551 165.07H33.1051L35.6151 172H34.6551L34.0951 170.45ZM33.8351 169.71L32.5751 166.19L31.3151 169.71H33.8351ZM41.5734 166.52V172H40.6634V171.19C40.49 171.47 40.2467 171.69 39.9334 171.85C39.6267 172.003 39.2867 172.08 38.9134 172.08C38.4867 172.08 38.1034 171.993 37.7634 171.82C37.4234 171.64 37.1534 171.373 36.9534 171.02C36.76 170.667 36.6634 170.237 36.6634 169.73V166.52H37.5634V169.61C37.5634 170.15 37.7 170.567 37.9734 170.86C38.2467 171.147 38.62 171.29 39.0934 171.29C39.58 171.29 39.9634 171.14 40.2434 170.84C40.5234 170.54 40.6634 170.103 40.6634 169.53V166.52H41.5734ZM45.3698 166.43C45.8432 166.43 46.2565 166.533 46.6098 166.74C46.9698 166.947 47.2365 167.207 47.4098 167.52V166.52H48.3298V172.12C48.3298 172.62 48.2232 173.063 48.0098 173.45C47.7965 173.843 47.4898 174.15 47.0898 174.37C46.6965 174.59 46.2365 174.7 45.7098 174.7C44.9898 174.7 44.3898 174.53 43.9098 174.19C43.4298 173.85 43.1465 173.387 43.0598 172.8H43.9598C44.0598 173.133 44.2665 173.4 44.5798 173.6C44.8932 173.807 45.2698 173.91 45.7098 173.91C46.2098 173.91 46.6165 173.753 46.9298 173.44C47.2498 173.127 47.4098 172.687 47.4098 172.12V170.97C47.2298 171.29 46.9632 171.557 46.6098 171.77C46.2565 171.983 45.8432 172.09 45.3698 172.09C44.8832 172.09 44.4398 171.97 44.0398 171.73C43.6465 171.49 43.3365 171.153 43.1098 170.72C42.8832 170.287 42.7698 169.793 42.7698 169.24C42.7698 168.68 42.8832 168.19 43.1098 167.77C43.3365 167.343 43.6465 167.013 44.0398 166.78C44.4398 166.547 44.8832 166.43 45.3698 166.43ZM47.4098 169.25C47.4098 168.837 47.3265 168.477 47.1598 168.17C46.9932 167.863 46.7665 167.63 46.4798 167.47C46.1998 167.303 45.8898 167.22 45.5498 167.22C45.2098 167.22 44.8998 167.3 44.6198 167.46C44.3398 167.62 44.1165 167.853 43.9498 168.16C43.7832 168.467 43.6998 168.827 43.6998 169.24C43.6998 169.66 43.7832 170.027 43.9498 170.34C44.1165 170.647 44.3398 170.883 44.6198 171.05C44.8998 171.21 45.2098 171.29 45.5498 171.29C45.8898 171.29 46.1998 171.21 46.4798 171.05C46.7665 170.883 46.9932 170.647 47.1598 170.34C47.3265 170.027 47.4098 169.663 47.4098 169.25ZM52.2737 171.27C53.1203 170.59 53.7837 170.033 54.2637 169.6C54.7437 169.16 55.147 168.703 55.4737 168.23C55.807 167.75 55.9737 167.28 55.9737 166.82C55.9737 166.387 55.867 166.047 55.6537 165.8C55.447 165.547 55.1103 165.42 54.6437 165.42C54.1903 165.42 53.837 165.563 53.5837 165.85C53.337 166.13 53.2037 166.507 53.1837 166.98H52.3037C52.3303 166.233 52.557 165.657 52.9837 165.25C53.4103 164.843 53.9603 164.64 54.6337 164.64C55.3203 164.64 55.8637 164.83 56.2637 165.21C56.6703 165.59 56.8737 166.113 56.8737 166.78C56.8737 167.333 56.707 167.873 56.3737 168.4C56.047 168.92 55.6737 169.38 55.2537 169.78C54.8337 170.173 54.297 170.633 53.6437 171.16H57.0837V171.92H52.2737V171.27ZM58.1356 168.31C58.1356 167.163 58.3223 166.27 58.6956 165.63C59.069 164.983 59.7223 164.66 60.6556 164.66C61.5823 164.66 62.2323 164.983 62.6056 165.63C62.979 166.27 63.1656 167.163 63.1656 168.31C63.1656 169.477 62.979 170.383 62.6056 171.03C62.2323 171.677 61.5823 172 60.6556 172C59.7223 172 59.069 171.677 58.6956 171.03C58.3223 170.383 58.1356 169.477 58.1356 168.31ZM62.2656 168.31C62.2656 167.73 62.2256 167.24 62.1456 166.84C62.0723 166.433 61.9156 166.107 61.6756 165.86C61.4423 165.613 61.1023 165.49 60.6556 165.49C60.2023 165.49 59.8556 165.613 59.6156 165.86C59.3823 166.107 59.2256 166.433 59.1456 166.84C59.0723 167.24 59.0356 167.73 59.0356 168.31C59.0356 168.91 59.0723 169.413 59.1456 169.82C59.2256 170.227 59.3823 170.553 59.6156 170.8C59.8556 171.047 60.2023 171.17 60.6556 171.17C61.1023 171.17 61.4423 171.047 61.6756 170.8C61.9156 170.553 62.0723 170.227 62.1456 169.82C62.2256 169.413 62.2656 168.91 62.2656 168.31Z" fill="#FFC700"/>
<path d="M8.87637 4.59C8.92303 3.97667 9.1597 3.49667 9.58637 3.15C10.013 2.80333 10.5664 2.63 11.2464 2.63C11.6997 2.63 12.0897 2.71333 12.4164 2.88C12.7497 3.04 12.9997 3.26 13.1664 3.54C13.3397 3.82 13.4264 4.13667 13.4264 4.49C13.4264 4.90333 13.3064 5.26 13.0664 5.56C12.833 5.86 12.5264 6.05333 12.1464 6.14V6.19C12.5797 6.29667 12.923 6.50667 13.1764 6.82C13.4297 7.13333 13.5564 7.54333 13.5564 8.05C13.5564 8.43 13.4697 8.77333 13.2964 9.08C13.123 9.38 12.863 9.61667 12.5164 9.79C12.1697 9.96333 11.753 10.05 11.2664 10.05C10.5597 10.05 9.9797 9.86667 9.52637 9.5C9.07303 9.12667 8.8197 8.6 8.76637 7.92H9.64637C9.69303 8.32 9.85637 8.64667 10.1364 8.9C10.4164 9.15333 10.7897 9.28 11.2564 9.28C11.723 9.28 12.0764 9.16 12.3164 8.92C12.563 8.67333 12.6864 8.35667 12.6864 7.97C12.6864 7.47 12.5197 7.11 12.1864 6.89C11.853 6.67 11.3497 6.56 10.6764 6.56H10.4464V5.8H10.6864C11.2997 5.79333 11.763 5.69333 12.0764 5.5C12.3897 5.3 12.5464 4.99333 12.5464 4.58C12.5464 4.22667 12.4297 3.94333 12.1964 3.73C11.9697 3.51667 11.643 3.41 11.2164 3.41C10.803 3.41 10.4697 3.51667 10.2164 3.73C9.96303 3.94333 9.81303 4.23 9.76637 4.59H8.87637ZM14.785 6.31C14.785 5.16333 14.9717 4.27 15.345 3.63C15.7184 2.98333 16.3717 2.66 17.305 2.66C18.2317 2.66 18.8817 2.98333 19.255 3.63C19.6284 4.27 19.815 5.16333 19.815 6.31C19.815 7.47667 19.6284 8.38333 19.255 9.03C18.8817 9.67667 18.2317 10 17.305 10C16.3717 10 15.7184 9.67667 15.345 9.03C14.9717 8.38333 14.785 7.47667 14.785 6.31ZM18.915 6.31C18.915 5.73 18.875 5.24 18.795 4.84C18.7217 4.43333 18.565 4.10667 18.325 3.86C18.0917 3.61333 17.7517 3.49 17.305 3.49C16.8517 3.49 16.505 3.61333 16.265 3.86C16.0317 4.10667 15.875 4.43333 15.795 4.84C15.7217 5.24 15.685 5.73 15.685 6.31C15.685 6.91 15.7217 7.41333 15.795 7.82C15.875 8.22667 16.0317 8.55333 16.265 8.8C16.505 9.04667 16.8517 9.17 17.305 9.17C17.7517 9.17 18.0917 9.04667 18.325 8.8C18.565 8.55333 18.7217 8.22667 18.795 7.82C18.875 7.41333 18.915 6.91 18.915 6.31ZM21.0643 6.31C21.0643 5.16333 21.251 4.27 21.6243 3.63C21.9977 2.98333 22.651 2.66 23.5843 2.66C24.511 2.66 25.161 2.98333 25.5343 3.63C25.9077 4.27 26.0943 5.16333 26.0943 6.31C26.0943 7.47667 25.9077 8.38333 25.5343 9.03C25.161 9.67667 24.511 10 23.5843 10C22.651 10 21.9977 9.67667 21.6243 9.03C21.251 8.38333 21.0643 7.47667 21.0643 6.31ZM25.1943 6.31C25.1943 5.73 25.1543 5.24 25.0743 4.84C25.001 4.43333 24.8443 4.10667 24.6043 3.86C24.371 3.61333 24.031 3.49 23.5843 3.49C23.131 3.49 22.7843 3.61333 22.5443 3.86C22.311 4.10667 22.1543 4.43333 22.0743 4.84C22.001 5.24 21.9643 5.73 21.9643 6.31C21.9643 6.91 22.001 7.41333 22.0743 7.82C22.1543 8.22667 22.311 8.55333 22.5443 8.8C22.7843 9.04667 23.131 9.17 23.5843 9.17C24.031 9.17 24.371 9.04667 24.6043 8.8C24.8443 8.55333 25.001 8.22667 25.0743 7.82C25.1543 7.41333 25.1943 6.91 25.1943 6.31Z" fill="#FFC700"/>
<path d="M9.99914 84.6V83.77H11.8791V91H10.9591V84.6H9.99914ZM18.0523 84.56H14.5423V86.84C14.6956 86.6267 14.9223 86.4533 15.2223 86.32C15.5223 86.18 15.8456 86.11 16.1923 86.11C16.7456 86.11 17.1956 86.2267 17.5423 86.46C17.8889 86.6867 18.1356 86.9833 18.2823 87.35C18.4356 87.71 18.5123 88.0933 18.5123 88.5C18.5123 88.98 18.4223 89.41 18.2423 89.79C18.0623 90.17 17.7856 90.47 17.4123 90.69C17.0456 90.91 16.5889 91.02 16.0423 91.02C15.3423 91.02 14.7756 90.84 14.3423 90.48C13.9089 90.12 13.6456 89.64 13.5523 89.04H14.4423C14.5289 89.42 14.7123 89.7167 14.9923 89.93C15.2723 90.1433 15.6256 90.25 16.0523 90.25C16.5789 90.25 16.9756 90.0933 17.2423 89.78C17.5089 89.46 17.6423 89.04 17.6423 88.52C17.6423 88 17.5089 87.6 17.2423 87.32C16.9756 87.0333 16.5823 86.89 16.0623 86.89C15.7089 86.89 15.3989 86.9767 15.1323 87.15C14.8723 87.3167 14.6823 87.5467 14.5623 87.84H13.7023V83.76H18.0523V84.56ZM19.7216 87.31C19.7216 86.1633 19.9082 85.27 20.2816 84.63C20.6549 83.9833 21.3082 83.66 22.2416 83.66C23.1682 83.66 23.8182 83.9833 24.1916 84.63C24.5649 85.27 24.7516 86.1633 24.7516 87.31C24.7516 88.4767 24.5649 89.3833 24.1916 90.03C23.8182 90.6767 23.1682 91 22.2416 91C21.3082 91 20.6549 90.6767 20.2816 90.03C19.9082 89.3833 19.7216 88.4767 19.7216 87.31ZM23.8516 87.31C23.8516 86.73 23.8116 86.24 23.7316 85.84C23.6582 85.4333 23.5016 85.1067 23.2616 84.86C23.0282 84.6133 22.6882 84.49 22.2416 84.49C21.7882 84.49 21.4416 84.6133 21.2016 84.86C20.9682 85.1067 20.8116 85.4333 20.7316 85.84C20.6582 86.24 20.6216 86.73 20.6216 87.31C20.6216 87.91 20.6582 88.4133 20.7316 88.82C20.8116 89.2267 20.9682 89.5533 21.2016 89.8C21.4416 90.0467 21.7882 90.17 22.2416 90.17C22.6882 90.17 23.0282 90.0467 23.2616 89.8C23.5016 89.5533 23.6582 89.2267 23.7316 88.82C23.8116 88.4133 23.8516 87.91 23.8516 87.31Z" fill="#FFC700"/>
<path d="M183.9 165.03V165.77H180.87V168.12H183.33V168.86H180.87V172H179.96V165.03H183.9ZM189.999 169.05C189.999 169.223 189.989 169.407 189.969 169.6H185.589C185.623 170.14 185.806 170.563 186.139 170.87C186.479 171.17 186.889 171.32 187.369 171.32C187.763 171.32 188.089 171.23 188.349 171.05C188.616 170.863 188.803 170.617 188.909 170.31H189.889C189.743 170.837 189.449 171.267 189.009 171.6C188.569 171.927 188.023 172.09 187.369 172.09C186.849 172.09 186.383 171.973 185.969 171.74C185.563 171.507 185.243 171.177 185.009 170.75C184.776 170.317 184.659 169.817 184.659 169.25C184.659 168.683 184.773 168.187 184.999 167.76C185.226 167.333 185.543 167.007 185.949 166.78C186.363 166.547 186.836 166.43 187.369 166.43C187.889 166.43 188.349 166.543 188.749 166.77C189.149 166.997 189.456 167.31 189.669 167.71C189.889 168.103 189.999 168.55 189.999 169.05ZM189.059 168.86C189.059 168.513 188.983 168.217 188.829 167.97C188.676 167.717 188.466 167.527 188.199 167.4C187.939 167.267 187.649 167.2 187.329 167.2C186.869 167.2 186.476 167.347 186.149 167.64C185.829 167.933 185.646 168.34 185.599 168.86H189.059ZM192.111 167.54C192.297 167.213 192.571 166.947 192.931 166.74C193.291 166.533 193.701 166.43 194.161 166.43C194.654 166.43 195.097 166.547 195.491 166.78C195.884 167.013 196.194 167.343 196.421 167.77C196.647 168.19 196.761 168.68 196.761 169.24C196.761 169.793 196.647 170.287 196.421 170.72C196.194 171.153 195.881 171.49 195.481 171.73C195.087 171.97 194.647 172.09 194.161 172.09C193.687 172.09 193.271 171.987 192.911 171.78C192.557 171.573 192.291 171.31 192.111 170.99V172H191.201V164.6H192.111V167.54ZM195.831 169.24C195.831 168.827 195.747 168.467 195.581 168.16C195.414 167.853 195.187 167.62 194.901 167.46C194.621 167.3 194.311 167.22 193.971 167.22C193.637 167.22 193.327 167.303 193.041 167.47C192.761 167.63 192.534 167.867 192.361 168.18C192.194 168.487 192.111 168.843 192.111 169.25C192.111 169.663 192.194 170.027 192.361 170.34C192.534 170.647 192.761 170.883 193.041 171.05C193.327 171.21 193.637 171.29 193.971 171.29C194.311 171.29 194.621 171.21 194.901 171.05C195.187 170.883 195.414 170.647 195.581 170.34C195.747 170.027 195.831 169.66 195.831 169.24ZM200.364 171.27C201.211 170.59 201.874 170.033 202.354 169.6C202.834 169.16 203.238 168.703 203.564 168.23C203.898 167.75 204.064 167.28 204.064 166.82C204.064 166.387 203.958 166.047 203.744 165.8C203.538 165.547 203.201 165.42 202.734 165.42C202.281 165.42 201.928 165.563 201.674 165.85C201.428 166.13 201.294 166.507 201.274 166.98H200.394C200.421 166.233 200.648 165.657 201.074 165.25C201.501 164.843 202.051 164.64 202.724 164.64C203.411 164.64 203.954 164.83 204.354 165.21C204.761 165.59 204.964 166.113 204.964 166.78C204.964 167.333 204.798 167.873 204.464 168.4C204.138 168.92 203.764 169.38 203.344 169.78C202.924 170.173 202.388 170.633 201.734 171.16H205.174V171.92H200.364V171.27ZM205.986 165.6V164.77H207.866V172H206.946V165.6H205.986Z" fill="#FFC700"/>
<defs>
<linearGradient id="paint0_linear" x1="218" y1="103" x2="218" y2="158" gradientUnits="userSpaceOnUse">
<stop stop-color="#F2C369"/>
<stop offset="1" stop-color="#F2C369" stop-opacity="0.4"/>
</linearGradient>
<linearGradient id="paint1_linear" x1="46.5" y1="88" x2="46.5" y2="158" gradientUnits="userSpaceOnUse">
<stop stop-color="#F2C369"/>
<stop offset="1" stop-color="#F2C369" stop-opacity="0.4"/>
</linearGradient>
<linearGradient id="paint2_linear" x1="71" y1="54" x2="71" y2="158" gradientUnits="userSpaceOnUse">
<stop stop-color="#F2C369"/>
<stop offset="1" stop-color="#F2C369" stop-opacity="0.4"/>
</linearGradient>
<linearGradient id="paint3_linear" x1="95.5" y1="84" x2="95.5" y2="158" gradientUnits="userSpaceOnUse">
<stop stop-color="#F2C369"/>
<stop offset="1" stop-color="#F2C369" stop-opacity="0.4"/>
</linearGradient>
<linearGradient id="paint4_linear" x1="120" y1="27" x2="120" y2="158" gradientUnits="userSpaceOnUse">
<stop stop-color="#F2C369"/>
<stop offset="1" stop-color="#F2C369" stop-opacity="0.4"/>
</linearGradient>
<linearGradient id="paint5_linear" x1="144.5" y1="47" x2="144.5" y2="158" gradientUnits="userSpaceOnUse">
<stop stop-color="#F2C369"/>
<stop offset="1" stop-color="#F2C369" stop-opacity="0.4"/>
</linearGradient>
<linearGradient id="paint6_linear" x1="169" y1="17" x2="169" y2="158" gradientUnits="userSpaceOnUse">
<stop stop-color="#F2C369"/>
<stop offset="1" stop-color="#F2C369" stop-opacity="0.4"/>
</linearGradient>
<linearGradient id="paint7_linear" x1="193.5" y1="72" x2="193.5" y2="158" gradientUnits="userSpaceOnUse">
<stop stop-color="#F2C369"/>
<stop offset="1" stop-color="#F2C369" stop-opacity="0.4"/>
</linearGradient>
<linearGradient id="paint8_linear" x1="242.5" y1="119" x2="242.5" y2="158" gradientUnits="userSpaceOnUse">
<stop stop-color="#F2C369"/>
<stop offset="1" stop-color="#F2C369" stop-opacity="0.4"/>
</linearGradient>
<linearGradient id="paint9_linear" x1="267" y1="88" x2="267" y2="158" gradientUnits="userSpaceOnUse">
<stop stop-color="#F2C369"/>
<stop offset="1" stop-color="#F2C369" stop-opacity="0.4"/>
</linearGradient>
<linearGradient id="paint10_linear" x1="291.5" y1="106" x2="291.5" y2="158" gradientUnits="userSpaceOnUse">
<stop stop-color="#F2C369"/>
<stop offset="1" stop-color="#F2C369" stop-opacity="0.4"/>
</linearGradient>
<linearGradient id="paint11_linear" x1="316" y1="120" x2="316" y2="158" gradientUnits="userSpaceOnUse">
<stop stop-color="#F2C369"/>
<stop offset="1" stop-color="#F2C369" stop-opacity="0.4"/>
</linearGradient>
<linearGradient id="paint12_linear" x1="340.5" y1="99" x2="340.5" y2="158" gradientUnits="userSpaceOnUse">
<stop stop-color="#F9ECD5"/>
<stop offset="1" stop-color="#F9ECD5" stop-opacity="0.76"/>
</linearGradient>
</defs>
</svg>
