<svg width="411" height="509" viewBox="0 0 411 509" fill="none" xmlns="http://www.w3.org/2000/svg">
<path d="M127.349 473.727C249.827 473.727 349.116 374.608 349.116 252.339C349.116 130.069 249.827 30.9507 127.349 30.9507C4.87058 30.9507 -94.4177 130.069 -94.4177 252.339C-94.4177 374.608 4.87058 473.727 127.349 473.727Z" fill="url(#paint0_linear)"/>
<path d="M127.349 468.296C246.823 468.296 343.675 371.608 343.675 252.339C343.675 133.069 246.823 36.3816 127.349 36.3816C7.8751 36.3816 -88.9775 133.069 -88.9775 252.339C-88.9775 371.608 7.8751 468.296 127.349 468.296Z" fill="#FF9900"/>
<path opacity="0.05" d="M57.4004 154.343C72.2415 154.343 84.2725 142.332 84.2725 127.517C84.2725 112.701 72.2415 100.691 57.4004 100.691C42.5594 100.691 30.5283 112.701 30.5283 127.517C30.5283 142.332 42.5594 154.343 57.4004 154.343Z" fill="black"/>
<path opacity="0.05" d="M139.593 441.62C154.434 441.62 166.465 429.609 166.465 414.794C166.465 399.978 154.434 387.968 139.593 387.968C124.752 387.968 112.721 399.978 112.721 414.794C112.721 429.609 124.752 441.62 139.593 441.62Z" fill="black"/>
<path opacity="0.05" d="M166.465 276.484C196.809 276.484 221.408 251.927 221.408 221.634C221.408 191.342 196.809 166.785 166.465 166.785C136.12 166.785 111.521 191.342 111.521 221.634C111.521 251.927 136.12 276.484 166.465 276.484Z" fill="black"/>
<path d="M214.248 316.613C187.034 316.613 158.065 315.314 128.452 312.701C62.6285 306.901 1.27215 295.321 -44.3049 280.102C-90.2108 264.76 -114.74 247.428 -113.315 231.299C-112.595 223.132 -105.387 215.841 -91.9032 209.63L-91.218 211.169C-104.113 217.106 -110.985 223.926 -111.65 231.449C-112.314 238.973 -106.614 247.072 -94.6918 255.266C-82.9755 263.317 -65.8533 271.128 -43.791 278.522C1.66954 293.706 62.882 305.252 128.582 311.039C194.283 316.825 256.578 316.162 303.984 309.165C326.992 305.745 345.224 301.066 358.174 295.191C371.356 289.213 378.379 282.318 379.05 274.705C379.818 266.039 371.973 256.538 356.372 247.236L357.242 245.779C373.686 255.581 381.586 265.362 380.743 274.856C379.318 290.991 352.144 303.768 304.238 310.834C278.153 314.671 247.479 316.607 214.248 316.613Z" fill="url(#paint1_linear)"/>
<path opacity="0.5" d="M356.831 244.794C372.391 254.076 380.75 263.72 379.92 273.064C377.05 305.533 264.498 322.14 128.527 310.157C-7.44324 298.173 -115.343 262.14 -112.472 229.671C-111.787 221.648 -104.353 214.623 -91.5538 208.7" stroke="#BDBDBD" stroke-width="3" stroke-miterlimit="10"/>
<path d="M155.091 348.419C135.482 339.979 115.468 330.56 95.6122 320.416C36.7773 290.375 -15.7404 256.661 -52.2664 225.471C-89.0734 194.049 -105.271 168.803 -97.8846 154.377C-94.1436 147.072 -84.7226 143.016 -69.8957 142.312L-69.8135 144.001C-83.9963 144.685 -92.9309 148.42 -96.3772 155.143C-99.8236 161.867 -97.5831 171.511 -89.6078 183.57C-81.7764 195.417 -68.8405 209.083 -51.1633 224.172C-14.7401 255.293 37.6612 288.932 96.3796 318.912C116.208 329.035 136.181 338.44 155.763 346.866L155.091 348.419Z" fill="url(#paint2_linear)"/>
<path d="M158.25 347.639C139.004 339.356 119.065 329.999 98.8188 319.664C-22.7086 257.619 -109.169 183.789 -94.3012 154.774C-90.6288 147.606 -81.1119 143.83 -67.0249 143.146" stroke="#BDBDBD" stroke-width="3" stroke-miterlimit="10"/>
<path d="M314.282 396.846C296.468 396.846 271.343 391.032 237.427 379.363L237.982 377.762C302.703 400.019 334.72 400.922 345.039 380.779C349.006 373.036 345.306 361.292 334.344 346.818L335.714 345.799C347.266 361.039 350.918 373.07 346.567 381.552C341.325 391.736 330.993 396.839 314.282 396.846Z" fill="url(#paint3_linear)"/>
<path d="M335.022 344.609C345.984 359.041 350.095 371.114 345.799 379.493C335.94 398.733 307.019 400.697 237.708 376.894" stroke="#BDBDBD" stroke-width="3" stroke-miterlimit="10"/>
<g opacity="0.5">
<path opacity="0.5" d="M380.099 2.20248H377.892V14.6717H380.099V2.20248Z" fill="#47E6B1"/>
<path opacity="0.5" d="M385.237 9.5417V7.33926L372.747 7.33926V9.5417H385.237Z" fill="#47E6B1"/>
</g>
<path opacity="0.5" d="M2.18338 495.361C1.57571 495.098 1.08631 494.62 0.808356 494.02C0.530402 493.42 0.483293 492.738 0.67602 492.105C0.708484 492.008 0.729182 491.907 0.737682 491.804C0.744359 491.519 0.661638 491.239 0.50107 491.003C0.340503 490.768 0.110132 490.588 -0.157848 490.489C-0.425829 490.39 -0.71802 490.378 -0.993557 490.453C-1.26909 490.528 -1.51421 490.687 -1.69463 490.908C-1.75529 490.991 -1.80589 491.081 -1.84537 491.175C-2.1093 491.782 -2.58747 492.27 -3.18886 492.548C-3.79025 492.825 -4.47287 492.872 -5.10674 492.68C-5.20442 492.648 -5.3056 492.627 -5.40819 492.618C-5.69375 492.612 -5.97428 492.694 -6.21052 492.855C-6.44677 493.015 -6.62693 493.245 -6.72582 493.512C-6.82471 493.78 -6.83737 494.072 -6.76205 494.347C-6.68674 494.622 -6.52722 494.866 -6.30577 495.047C-6.22298 495.107 -6.13327 495.158 -6.03854 495.197C-5.43087 495.461 -4.94147 495.938 -4.66352 496.538C-4.38557 497.139 -4.33846 497.82 -4.53118 498.453C-4.56365 498.55 -4.58437 498.651 -4.59287 498.754C-4.59954 499.039 -4.5168 499.319 -4.35623 499.555C-4.19567 499.791 -3.9653 499.97 -3.69731 500.069C-3.42933 500.168 -3.13714 500.181 -2.86161 500.105C-2.58607 500.03 -2.34095 499.871 -2.16053 499.65C-2.09988 499.567 -2.04928 499.478 -2.0098 499.383C-1.74587 498.776 -1.26769 498.288 -0.666303 498.01C-0.0649123 497.733 0.617686 497.686 1.25155 497.878C1.34923 497.911 1.45044 497.931 1.55302 497.94C1.83859 497.947 2.11912 497.864 2.35536 497.704C2.5916 497.543 2.77176 497.313 2.87065 497.046C2.96954 496.778 2.9822 496.487 2.90689 496.212C2.83158 495.936 2.67204 495.692 2.45058 495.512C2.3678 495.451 2.27811 495.401 2.18338 495.361Z" fill="#4D8AF0"/>
<path opacity="0.5" d="M136.647 504.192C136.039 503.928 135.55 503.451 135.272 502.85C134.994 502.25 134.947 501.569 135.139 500.936C135.172 500.838 135.192 500.737 135.201 500.635C135.208 500.35 135.125 500.07 134.964 499.834C134.804 499.598 134.573 499.418 134.305 499.319C134.037 499.221 133.745 499.208 133.47 499.283C133.194 499.358 132.949 499.518 132.769 499.739C132.708 499.821 132.657 499.911 132.618 500.006C132.354 500.612 131.876 501.101 131.274 501.378C130.673 501.656 129.99 501.703 129.356 501.51C129.259 501.478 129.158 501.457 129.055 501.449C128.769 501.442 128.489 501.525 128.253 501.685C128.016 501.845 127.836 502.075 127.737 502.343C127.638 502.61 127.626 502.902 127.701 503.177C127.776 503.452 127.936 503.697 128.157 503.877C128.24 503.937 128.33 503.988 128.425 504.027C129.032 504.291 129.522 504.768 129.8 505.369C130.078 505.969 130.125 506.65 129.932 507.283C129.899 507.381 129.879 507.482 129.87 507.584C129.864 507.869 129.946 508.149 130.107 508.385C130.267 508.621 130.498 508.801 130.766 508.9C131.034 508.998 131.326 509.011 131.602 508.936C131.877 508.861 132.122 508.701 132.303 508.48C132.363 508.398 132.414 508.308 132.453 508.213C132.717 507.607 133.195 507.118 133.797 506.841C134.398 506.563 135.081 506.516 135.715 506.709C135.812 506.741 135.914 506.762 136.016 506.77C136.302 506.777 136.582 506.694 136.819 506.534C137.055 506.374 137.235 506.144 137.334 505.876C137.433 505.609 137.445 505.317 137.37 505.042C137.295 504.767 137.135 504.522 136.914 504.342C136.831 504.281 136.741 504.231 136.647 504.192Z" fill="#4D8AF0"/>
<path opacity="0.5" d="M402.647 149.883C402.04 149.62 401.55 149.143 401.272 148.542C400.994 147.942 400.947 147.26 401.14 146.628C401.172 146.53 401.193 146.429 401.202 146.327C401.208 146.042 401.126 145.761 400.965 145.526C400.804 145.29 400.574 145.11 400.306 145.011C400.038 144.913 399.746 144.9 399.47 144.975C399.195 145.05 398.95 145.209 398.769 145.431C398.709 145.513 398.658 145.603 398.619 145.697C398.355 146.304 397.876 146.793 397.275 147.07C396.674 147.347 395.991 147.394 395.357 147.202C395.259 147.17 395.158 147.149 395.056 147.141C394.77 147.134 394.49 147.216 394.253 147.377C394.017 147.537 393.837 147.767 393.738 148.035C393.639 148.302 393.627 148.594 393.702 148.869C393.777 149.144 393.937 149.389 394.158 149.569C394.241 149.629 394.331 149.68 394.425 149.719C395.033 149.983 395.522 150.46 395.8 151.06C396.078 151.661 396.125 152.342 395.933 152.975C395.9 153.072 395.88 153.174 395.871 153.276C395.864 153.561 395.947 153.841 396.108 154.077C396.268 154.313 396.499 154.493 396.767 154.591C397.035 154.69 397.327 154.703 397.602 154.627C397.878 154.552 398.123 154.393 398.303 154.172C398.364 154.089 398.415 154 398.454 153.905C398.718 153.299 399.196 152.81 399.798 152.533C400.399 152.255 401.082 152.208 401.715 152.4C401.813 152.433 401.914 152.454 402.017 152.462C402.303 152.469 402.583 152.386 402.819 152.226C403.056 152.065 403.236 151.836 403.335 151.568C403.433 151.3 403.446 151.009 403.371 150.734C403.296 150.459 403.136 150.214 402.915 150.034C402.832 149.973 402.742 149.923 402.647 149.883Z" fill="#4D8AF0"/>
<path opacity="0.5" d="M228.726 19.8016C231.159 19.8016 233.131 17.8325 233.131 15.4035C233.131 12.9745 231.159 11.0054 228.726 11.0054C226.293 11.0054 224.32 12.9745 224.32 15.4035C224.32 17.8325 226.293 19.8016 228.726 19.8016Z" fill="#4D8AF0"/>
<path opacity="0.5" d="M312.493 477.536C314.927 477.536 316.899 475.567 316.899 473.138C316.899 470.709 314.927 468.74 312.493 468.74C310.06 468.74 308.088 470.709 308.088 473.138C308.088 475.567 310.06 477.536 312.493 477.536Z" fill="#F55F44"/>
<path d="M208.671 334.664C207.442 334.028 206.011 333.905 204.692 334.321C203.372 334.738 202.272 335.661 201.634 336.887L201.1 337.913L199.88 337.277L188.979 331.627L186.609 330.396C186.277 330.225 185.905 330.147 185.533 330.17C175.098 326.75 166.725 333.337 161.326 343.713C159.404 347.263 158.13 351.126 157.564 355.122L157.441 355.061C156.838 359.336 157.4 363.344 159.497 366.736L159.675 366.388C160.724 368.11 162.074 369.63 163.662 370.875C163.716 371.096 163.816 371.304 163.957 371.483C164.097 371.663 164.275 371.81 164.478 371.914L179.401 379.65L178.263 381.832C177.626 383.059 177.503 384.487 177.92 385.805C178.338 387.122 179.262 388.22 180.49 388.857L184.032 382.017L202.436 391.559L203.642 389.247L204.848 386.935L206.65 383.467H206.711L202.532 391.497L211.336 396.121C222.052 401.675 230.24 394.541 236.187 383.487V383.426L236.55 382.742V382.68L236.858 382.072C242.545 370.82 243.71 360.04 232.939 354.466L224.162 349.951L219.318 359.267H219.257L221.73 354.513L222.867 352.332L224.135 349.89L205.731 340.314L208.671 334.664ZM180.579 374.39L180.634 374.438H180.572L180.579 374.39Z" fill="url(#paint4_linear)"/>
<path d="M204.015 344.003L185.911 378.795L203.337 387.832L221.441 353.039L204.015 344.003Z" fill="#4F617D"/>
<path d="M234.303 381.675V381.613C228.678 392.42 220.86 399.568 210.548 394.226L202.251 389.924L222.655 350.779L230.946 355.081C241.257 360.43 239.928 370.868 234.303 381.675Z" fill="#FF656A"/>
<path d="M227.896 390.854C230.475 388.118 232.634 385.015 234.303 381.647C235.847 378.771 237.036 375.719 237.845 372.557L234.303 370.717L224.71 389.185L227.896 390.854Z" fill="#4A5C81"/>
<path d="M206.164 382.394L218.046 359.559L218.684 359.89C219.029 360.069 219.335 360.314 219.586 360.611C219.836 360.908 220.025 361.251 220.142 361.621C220.259 361.991 220.302 362.381 220.269 362.767C220.235 363.154 220.126 363.53 219.946 363.874L210.787 381.477C210.425 382.172 209.801 382.696 209.053 382.932C208.304 383.169 207.493 383.098 206.796 382.737L206.157 382.406L206.164 382.394Z" fill="#4A5C81"/>
<path d="M166.993 367.311L167.435 366.461L204.464 385.663L202.202 390.009L168.682 372.627C168.221 372.389 167.812 372.062 167.477 371.666C167.143 371.27 166.89 370.812 166.733 370.319C166.576 369.825 166.519 369.305 166.563 368.789C166.608 368.273 166.754 367.771 166.993 367.311Z" fill="#FF6469"/>
<path d="M183.342 335.887L183.784 335.037C184.267 334.11 185.098 333.412 186.096 333.097C187.094 332.782 188.177 332.876 189.106 333.357L222.632 350.743L220.371 355.089L183.342 335.887Z" fill="#FF6469"/>
<path d="M199.805 338.857L179.442 378.002L169.164 372.687C157.839 366.812 157.9 355.717 163.519 344.91C169.144 334.103 178.202 327.674 189.555 333.542L199.805 338.857Z" fill="#FF656A"/>
<path d="M161.799 366.572L165.91 358.706L159.887 355.587C159.298 359.609 159.833 363.378 161.799 366.572Z" fill="#FFF6D5"/>
<path d="M180.099 331.395L175.988 339.26L169.966 336.141C172.96 333.358 176.352 331.62 180.099 331.395Z" fill="#FFF6D5"/>
<path d="M179.028 381.679L180.607 378.645L184.96 380.902L181.562 387.433L180.723 386.998C180.261 386.761 179.851 386.435 179.515 386.039C179.18 385.642 178.926 385.184 178.769 384.69C178.611 384.196 178.553 383.676 178.598 383.159C178.642 382.642 178.788 382.14 179.028 381.679Z" fill="#FF6469"/>
<path d="M208.054 336.356L204.658 342.881L200.305 340.624L201.884 337.589C202.367 336.662 203.198 335.964 204.196 335.649C205.194 335.333 206.277 335.427 207.206 335.909L208.057 336.35L208.054 336.356Z" fill="#FF6469"/>
<path d="M202.401 344.349L185.368 377.092L170.582 363.891C169.432 362.863 168.657 361.483 168.379 359.967C168.101 358.452 168.337 356.887 169.048 355.519L175.379 343.358C176.093 341.984 177.245 340.889 178.654 340.244C180.063 339.6 181.647 339.444 183.155 339.801L202.401 344.349Z" fill="#53678B"/>
<path d="M186.115 375.943C178.894 372.201 176.461 362.598 180.682 354.486C184.902 346.374 194.173 342.858 201.388 346.586" fill="#658BC8"/>
<path d="M203.58 345.04L186.609 377.66L183.34 375.963L185.642 374.199L199.586 347.407L200.312 343.344L203.58 345.04Z" fill="#FF656A"/>
<path opacity="0.05" d="M203.58 345.04L186.609 377.66L183.34 375.963L185.642 374.199L199.586 347.407L200.312 343.344L203.58 345.04Z" fill="black"/>
<path d="M195.05 361.375L192.788 365.721L197.142 367.978L199.403 363.632L195.05 361.375Z" fill="#53678B"/>
<path d="M199.372 366.365C200.621 363.965 201.146 361.767 200.545 361.455C199.944 361.143 198.444 362.836 197.196 365.237C195.947 367.637 195.421 369.835 196.022 370.147C196.624 370.459 198.123 368.766 199.372 366.365Z" fill="#53678B"/>
<path opacity="0.05" d="M210.226 388.528C211.176 389.174 212.249 389.619 213.378 389.834C214.507 390.05 215.668 390.032 216.79 389.782C217.912 389.532 218.97 389.055 219.9 388.381C220.83 387.706 221.611 386.849 222.196 385.861" fill="black"/>
<path opacity="0.05" d="M225.505 359.185C226.579 359.591 227.558 360.212 228.381 361.009C229.205 361.807 229.857 362.765 230.296 363.823C230.735 364.882 230.952 366.019 230.934 367.165C230.917 368.31 230.664 369.44 230.192 370.485" fill="black"/>
<path opacity="0.05" d="M172.563 359.329C172.563 359.329 171.597 350.546 180.483 344.11L172.563 359.329Z" fill="black"/>
<path opacity="0.05" d="M176.674 361.463C176.674 361.463 175.708 352.68 184.594 346.244L176.674 361.463Z" fill="black"/>
<path d="M188.389 366.196C189.326 364.396 188.624 362.179 186.82 361.244C185.017 360.309 182.796 361.01 181.859 362.81C180.922 364.61 181.625 366.828 183.428 367.763C185.231 368.698 187.453 367.997 188.389 366.196Z" fill="#4A77BE"/>
<path d="M192.436 353.11C193.06 351.91 192.592 350.432 191.39 349.808C190.187 349.185 188.707 349.652 188.082 350.852C187.458 352.053 187.926 353.531 189.128 354.154C190.33 354.778 191.811 354.31 192.436 353.11Z" fill="#4A77BE"/>
<path d="M198.213 361.097L198.07 360.393C197.991 360.009 198.069 359.61 198.285 359.283C198.501 358.956 198.839 358.728 199.224 358.65L207.113 357.043C207.507 356.962 207.916 357.042 208.251 357.263C208.587 357.484 208.82 357.829 208.9 358.222L209.335 360.347L199.934 362.262C199.552 362.332 199.157 362.25 198.835 362.032C198.513 361.814 198.289 361.478 198.213 361.097Z" fill="#CDEFFF"/>
<path opacity="0.05" d="M202.846 362.37L202.116 358.77L206.42 357.9C207.189 357.744 207.989 357.9 208.644 358.334C209.298 358.767 209.753 359.441 209.909 360.21L210.052 360.913L202.846 362.37Z" fill="black"/>
<path d="M196.231 377.736L199.197 372.036L205.958 375.542L202.993 381.242C202.62 381.958 201.977 382.497 201.206 382.741C200.435 382.984 199.599 382.912 198.881 382.54L197.562 381.856C197.202 381.674 196.882 381.423 196.62 381.117C196.357 380.811 196.159 380.456 196.035 380.073C195.911 379.69 195.865 379.286 195.899 378.885C195.932 378.483 196.045 378.093 196.231 377.736Z" fill="#CDEFFF"/>
<path d="M203.148 380.574L201.922 383.193C200.593 385.396 197.372 385.998 194.597 384.561L191.377 382.892L193.124 379.527L203.148 380.574Z" fill="#CDEFFF"/>
<path d="M185.357 378.093L185.698 377.437C185.885 377.079 186.207 376.808 186.593 376.686C186.98 376.564 187.399 376.601 187.758 376.787L193.139 379.578L191.39 382.94L186.009 380.15C185.649 379.963 185.378 379.642 185.256 379.256C185.134 378.87 185.17 378.452 185.357 378.093Z" fill="#CDEFFF"/>
<path opacity="0.05" d="M202.045 375.601C203.161 376.181 204.439 376.373 205.677 376.148L205.855 375.799L199.277 372.379C199.747 373.771 200.739 374.926 202.045 375.601Z" fill="black"/>
<path d="M212.452 362.825L209.489 368.519L202.752 365.025L205.718 359.326C205.903 358.971 206.155 358.656 206.462 358.399C206.768 358.142 207.123 357.947 207.504 357.827C207.886 357.706 208.288 357.662 208.687 357.696C209.086 357.731 209.474 357.843 209.829 358.028L211.149 358.712C211.504 358.896 211.82 359.148 212.077 359.454C212.335 359.76 212.53 360.114 212.65 360.495C212.771 360.876 212.815 361.277 212.781 361.676C212.746 362.074 212.634 362.461 212.449 362.816L212.452 362.825Z" fill="#CDEFFF"/>
<path opacity="0.05" d="M207.39 365.341C208.509 365.919 209.403 366.853 209.932 367.995L209.753 368.344L203.176 364.924C204.582 364.515 206.092 364.664 207.39 365.341Z" fill="black"/>
<path d="M209.787 372.918C211.236 370.132 210.149 366.701 207.359 365.254C204.568 363.807 201.131 364.892 199.681 367.678C198.232 370.464 199.319 373.895 202.109 375.342C204.9 376.789 208.337 375.704 209.787 372.918Z" fill="#CDEFFF"/>
<path d="M209.503 373.003C210.953 370.217 209.866 366.786 207.075 365.339C204.285 363.892 200.847 364.977 199.398 367.762C197.948 370.548 199.035 373.98 201.826 375.427C204.616 376.874 208.054 375.789 209.503 373.003Z" fill="#CDEFFF"/>
<path d="M199.359 367.708C198.898 368.593 198.679 369.583 198.723 370.58C198.768 371.577 199.075 372.544 199.613 373.385C200.61 373.339 201.577 373.032 202.418 372.496C203.258 371.959 203.943 371.211 204.403 370.328C204.863 369.444 205.083 368.454 205.039 367.459C204.996 366.464 204.691 365.498 204.156 364.657C203.158 364.701 202.19 365.005 201.348 365.541C200.506 366.076 199.82 366.824 199.359 367.708Z" fill="#658BC8"/>
<defs>
<linearGradient id="paint0_linear" x1="127.349" y1="473.726" x2="127.349" y2="30.9507" gradientUnits="userSpaceOnUse">
<stop stop-color="#808080" stop-opacity="0.25"/>
<stop offset="0.54" stop-color="#808080" stop-opacity="0.12"/>
<stop offset="1" stop-color="#808080" stop-opacity="0.1"/>
</linearGradient>
<linearGradient id="paint1_linear" x1="285131" y1="57954.9" x2="285131" y2="41220.6" gradientUnits="userSpaceOnUse">
<stop stop-color="#808080" stop-opacity="0.25"/>
<stop offset="0.54" stop-color="#808080" stop-opacity="0.12"/>
<stop offset="1" stop-color="#808080" stop-opacity="0.1"/>
</linearGradient>
<linearGradient id="paint2_linear" x1="107929" y1="120975" x2="107929" y2="58872.7" gradientUnits="userSpaceOnUse">
<stop stop-color="#808080" stop-opacity="0.25"/>
<stop offset="0.54" stop-color="#808080" stop-opacity="0.12"/>
<stop offset="1" stop-color="#808080" stop-opacity="0.1"/>
</linearGradient>
<linearGradient id="paint3_linear" x1="90021.4" y1="33886.3" x2="90021.4" y2="30076.2" gradientUnits="userSpaceOnUse">
<stop stop-color="#808080" stop-opacity="0.25"/>
<stop offset="0.54" stop-color="#808080" stop-opacity="0.12"/>
<stop offset="1" stop-color="#808080" stop-opacity="0.1"/>
</linearGradient>
<linearGradient id="paint4_linear" x1="69749.9" y1="-32247.8" x2="62185.2" y2="-36184" gradientUnits="userSpaceOnUse">
<stop stop-color="#808080" stop-opacity="0.25"/>
<stop offset="0.54" stop-color="#808080" stop-opacity="0.12"/>
<stop offset="1" stop-color="#808080" stop-opacity="0.1"/>
</linearGradient>
</defs>
</svg>
